<svg xmlns="http://www.w3.org/2000/svg" viewBox="0 0 64 64">
  <defs>
    <linearGradient id="g" x1="0%" x2="100%" y1="0%" y2="100%">
      <stop offset="0%" stop-color="#22c55e" />
      <stop offset="100%" stop-color="#0891b2" />
    </linearGradient>
  </defs>
  <rect width="64" height="64" rx="18" fill="#04171b" />
  <path
    d="M18 32c0-8.8 7.2-16 16-16 5 0 9.5 2.3 12.4 5.9l-6.1 4.2A9 9 0 0 0 25 32c0 5 4 9 9 9 3.5 0 6.6-2 8.1-4.8h-9v-8h20c.2 1.2.3 2.4.3 3.8 0 12.1-8.9 20-19.6 20C25.8 52 18 44.2 18 32Z"
    fill="url(#g)"
  />
</svg>
